<svg width="400" height="219" viewBox="0 0 400 219" fill="none" xmlns="http://www.w3.org/2000/svg">
<g clip-path="url(#clip0_79_374)">
<path d="M15.8798 209.415C26.7985 217.281 40.9483 217.676 54.6257 216.71C56.5355 216.575 58.4319 216.417 60.3107 216.246C60.322 216.244 60.3369 216.245 60.3485 216.242C60.4387 216.233 60.5292 216.224 60.6156 216.219C61.0034 216.183 61.3913 216.147 61.7755 216.11L61.6847 216.283L61.3999 216.821C61.5023 216.641 61.6046 216.465 61.7069 216.285C61.737 216.231 61.7708 216.177 61.8007 216.123C65.3439 209.957 68.8581 203.565 69.7545 196.525C70.6811 189.217 68.0771 180.942 61.6453 177.35C60.8018 176.88 59.9085 176.506 58.9821 176.235C58.5974 176.118 58.2075 176.023 57.8132 175.939C55.4011 175.403 52.8897 175.52 50.5375 176.276C48.1853 177.033 46.0771 178.403 44.4296 180.244C42.7822 182.086 41.6549 184.333 41.1638 186.755C40.6727 189.176 40.8355 191.685 41.6354 194.023C36.1824 188.431 37.1996 179.36 39.0806 171.779C40.9653 164.199 43.2468 155.763 39.4136 148.954C37.2828 145.164 33.5356 142.813 29.3304 141.865C29.2014 141.838 29.0726 141.81 28.9433 141.786C23.9329 140.771 18.7241 141.683 14.3572 144.341C6.31645 149.408 2.18661 159.016 0.846236 168.426C-1.31335 183.57 3.46585 200.472 15.8798 209.415Z" fill="#F1F1F1"/>
<path d="M19.4053 185.139C19.7222 188.48 20.5247 191.756 21.7872 194.865C22.9507 197.616 24.519 200.178 26.4401 202.465C30.3644 207.186 35.5535 210.735 41.1889 213.1C45.4979 214.864 50.0127 216.077 54.6259 216.71C56.5357 216.575 58.4321 216.417 60.3109 216.246C60.3222 216.244 60.3371 216.245 60.3487 216.242C60.4389 216.233 60.5294 216.224 60.6158 216.219C61.0036 216.183 61.3915 216.147 61.7757 216.11L61.6849 216.283L61.4001 216.821C61.5025 216.641 61.6048 216.465 61.7071 216.285C61.7372 216.231 61.771 216.177 61.8009 216.123C58.3424 212.677 55.7602 208.453 54.2706 203.804C52.7811 199.154 52.4276 194.216 53.2398 189.402C54.0897 184.621 56.0574 180.11 58.9823 176.235C58.5976 176.118 58.2077 176.023 57.8134 175.939C56.7019 177.459 55.7268 179.074 54.8997 180.765C51.9318 186.797 50.985 193.624 52.1993 200.236C53.3282 206.22 56.1408 211.757 60.3068 216.198C59.942 216.172 59.5737 216.142 59.2133 216.109C52.3859 215.531 45.5725 214.063 39.3801 211.057C34.0869 208.549 29.4915 204.779 25.9987 200.077C22.2483 194.905 20.5957 188.683 20.3118 182.36C20.0108 175.59 20.8892 168.702 22.4341 162.118C24.0117 155.369 26.4092 148.838 29.5732 142.672C29.6439 142.532 29.6582 142.37 29.613 142.22C29.5679 142.07 29.4668 141.943 29.3306 141.865C29.2171 141.789 29.078 141.76 28.9435 141.786C28.8777 141.803 28.8167 141.835 28.765 141.879C28.7133 141.924 28.6722 141.979 28.6449 142.041C28.2546 142.803 27.8715 143.566 27.503 144.336C24.4341 150.757 22.1746 157.534 20.7766 164.512C19.4194 171.243 18.695 178.285 19.4053 185.139Z" fill="white"/>
<path d="M157.856 218.601H0.413235C0.303638 218.601 0.19853 218.558 0.121033 218.48C0.0435368 218.403 0 218.298 0 218.188C0 218.078 0.0435368 217.973 0.121033 217.896C0.19853 217.818 0.303638 217.775 0.413235 217.775H157.856C157.965 217.775 158.07 217.818 158.148 217.896C158.225 217.973 158.269 218.078 158.269 218.188C158.269 218.298 158.225 218.403 158.148 218.48C158.07 218.558 157.965 218.601 157.856 218.601Z" fill="#CBCBCB"/>
<path d="M110.594 107.634L103.475 72.7508L100.348 46.9859L93.4199 51.4678L94.377 79.8608L105.435 109.279C105.08 109.956 104.934 110.723 105.015 111.483C105.097 112.243 105.403 112.962 105.895 113.547C106.386 114.133 107.04 114.56 107.775 114.773C108.509 114.985 109.29 114.975 110.018 114.743C110.747 114.511 111.39 114.067 111.865 113.469C112.341 112.87 112.628 112.144 112.69 111.382C112.752 110.62 112.585 109.857 112.212 109.189C111.839 108.522 111.276 107.981 110.594 107.634V107.634Z" fill="#FFB7B7"/>
<path d="M44.0107 110.332L45.9813 74.7836L45.3286 48.8378L54.4878 52.2646L56.0169 80.495L49.3543 111.208C49.8043 111.826 50.0604 112.564 50.09 113.328C50.1196 114.092 49.9213 114.847 49.5204 115.498C49.1195 116.149 48.534 116.667 47.8385 116.984C47.143 117.301 46.3688 117.405 45.6143 117.281C44.8599 117.157 44.1593 116.812 43.6016 116.289C43.0439 115.766 42.6544 115.089 42.4825 114.344C42.3106 113.599 42.3641 112.82 42.6362 112.105C42.9083 111.391 43.3868 110.773 44.0107 110.332L44.0107 110.332Z" fill="#FFB7B7"/>
<path d="M63.1942 213.682L67.8741 213.682L70.1006 195.63L63.1934 195.63L63.1942 213.682Z" fill="#FFB7B7"/>
<path d="M62 212.154L71.2168 212.154H71.2172C72.775 212.154 74.2689 212.773 75.3704 213.874C76.4719 214.976 77.0908 216.47 77.0909 218.027V218.218L62.0003 218.219L62 212.154Z" fill="#2F2E41"/>
<path d="M80.9204 211.611L85.5453 212.326L90.5058 194.827L83.68 193.772L80.9204 211.611Z" fill="#FFB7B7"/>
<path d="M79.9744 209.918L89.0829 211.327L89.0833 211.327C90.6227 211.566 92.0044 212.406 92.9246 213.663C93.8447 214.92 94.2279 216.491 93.9898 218.03L93.9606 218.219L79.0474 215.912L79.9744 209.918Z" fill="#2F2E41"/>
<path d="M61.8193 208.292L61.795 208.161L44.8522 116.557C43.5073 109.203 44.5801 101.612 47.91 94.9184L58.1648 74.4089L88.7641 78.5544L92.3753 104.666L105.244 154.478L105.232 154.519L88.7436 206.893L77.9375 207.603L87.5097 160.852L69.9826 121.043L71.2189 207.58L61.8193 208.292Z" fill="#2F2E41"/>
<path d="M89.4761 81.8961L89.2742 81.5797C89.2379 81.5226 85.521 75.9227 75.4066 79.6617C65.0813 83.4793 57.0808 76.1059 57.0011 76.0311L56.9615 75.9937L54.6232 55.152L51.8628 38.2327L60.6498 36.6911L64.9699 34.0993L82.1485 33.7934L86.6691 37.3489L94.091 38.1577L94.7704 53.5742L94.7673 53.591L89.4761 81.8961Z" fill="#6C63FF"/>
<path d="M91.938 55.0654V41.8646L94.0251 38.0557L94.1099 38.0531C95.7529 38.1144 97.3058 38.82 98.4327 40.0172C100.532 42.1501 101.483 45.7037 101.259 50.5792L101.255 50.6684L91.938 55.0654Z" fill="#6C63FF"/>
<path d="M55.5604 53.6306L44.9229 52.354L44.9146 52.2315C44.5517 46.9268 45.4776 42.9892 47.6665 40.5281C49.6532 38.2946 51.9295 38.1593 52.0255 38.1547L52.0869 38.1518L54.9665 40.7695L55.5604 53.6306Z" fill="#6C63FF"/>
<path d="M86.3539 28.4743H58.3622C57.7864 28.4736 57.2344 28.2446 56.8272 27.8375C56.4201 27.4303 56.1911 26.8783 56.1904 26.3025V16.1676C56.1904 11.8797 57.8938 7.76739 60.9258 4.73538C63.9578 1.70337 68.0701 0 72.358 0C76.6459 0 80.7582 1.70337 83.7902 4.73538C86.8223 7.76739 88.5256 11.8797 88.5256 16.1676V26.3025C88.525 26.8783 88.296 27.4303 87.8888 27.8375C87.4817 28.2446 86.9297 28.4736 86.3539 28.4743Z" fill="#2F2E41"/>
<path d="M83.4089 22.2066C86.549 16.4624 84.4379 9.26017 78.6936 6.12008C72.9493 2.97998 65.7471 5.09108 62.607 10.8354C59.4669 16.5796 61.578 23.7818 67.3223 26.9219C73.0666 30.062 80.2688 27.9509 83.4089 22.2066Z" fill="#FFB7B7"/>
<path d="M84.2747 16.8915H68.6251C68.3311 16.8911 68.0474 16.7836 67.827 16.589C67.6066 16.3944 67.4647 16.1261 67.4279 15.8344L67.2253 14.2136C67.2058 14.0577 67.1362 13.9124 67.0269 13.7996C66.9177 13.6868 66.7747 13.6126 66.6195 13.5881C66.4644 13.5637 66.3055 13.5904 66.1668 13.6642C66.0282 13.738 65.9173 13.8549 65.8509 13.9972L64.825 16.1954C64.7274 16.4031 64.5729 16.5788 64.3793 16.702C64.1858 16.8252 63.9612 16.891 63.7317 16.8915H61.3546C61.1864 16.8916 61.0201 16.8564 60.8663 16.7884C60.7125 16.7204 60.5747 16.621 60.4616 16.4966C60.3485 16.3721 60.2626 16.2254 60.2096 16.0658C60.1565 15.9063 60.1374 15.7374 60.1535 15.57L61.0908 5.7796C61.1108 5.57014 61.1849 5.36948 61.3058 5.19723C61.4266 5.02499 61.5901 4.88706 61.7803 4.79693C68.9473 1.45115 76.2151 1.45539 83.3821 4.80966C83.5639 4.89511 83.7216 5.02454 83.8408 5.18624C83.96 5.34795 84.037 5.53682 84.0648 5.73577L85.4689 15.5134C85.4936 15.6846 85.4811 15.8591 85.4324 16.0251C85.3837 16.191 85.2999 16.3446 85.1866 16.4753C85.0733 16.606 84.9333 16.7108 84.7759 16.7826C84.6186 16.8544 84.4476 16.8916 84.2747 16.8915L84.2747 16.8915Z" fill="#2F2E41"/>
<path d="M110.631 109.862L110.046 109.278L135.445 83.8792H184.664L209.498 58.5335H258.081L282.593 33.8311H396.694V34.6576H282.937L258.425 59.3599H209.845L185.011 84.7057H135.787L110.631 109.862Z" fill="#3F3D56"/>
<path d="M210.325 74.3823C218.77 74.3823 225.615 67.5369 225.615 59.0926C225.615 50.6483 218.77 43.8029 210.325 43.8029C201.881 43.8029 195.036 50.6483 195.036 59.0926C195.036 67.5369 201.881 74.3823 210.325 74.3823Z" fill="white"/>
<path d="M283.055 38.4308C285.337 38.4308 287.187 36.5807 287.187 34.2985C287.187 32.0163 285.337 30.1661 283.055 30.1661C280.772 30.1661 278.922 32.0163 278.922 34.2985C278.922 36.5807 280.772 38.4308 283.055 38.4308Z" fill="#CBCBCB"/>
<path d="M395.868 38.4308C398.15 38.4308 400 36.5807 400 34.2985C400 32.0163 398.15 30.1661 395.868 30.1661C393.585 30.1661 391.735 32.0163 391.735 34.2985C391.735 36.5807 393.585 38.4308 395.868 38.4308Z" fill="#CBCBCB"/>
<path d="M339.668 38.4308C341.95 38.4308 343.8 36.5807 343.8 34.2985C343.8 32.0163 341.95 30.1661 339.668 30.1661C337.385 30.1661 335.535 32.0163 335.535 34.2985C335.535 36.5807 337.385 38.4308 339.668 38.4308Z" fill="#CBCBCB"/>
<path d="M210.325 74.7955C207.219 74.7955 204.183 73.8746 201.601 72.1491C199.019 70.4237 197.006 67.9712 195.817 65.1019C194.629 62.2325 194.318 59.0752 194.924 56.0291C195.53 52.9831 197.025 50.1851 199.221 47.989C201.417 45.7929 204.215 44.2973 207.262 43.6914C210.308 43.0855 213.465 43.3965 216.334 44.585C219.204 45.7735 221.656 47.7862 223.382 50.3685C225.107 52.9509 226.028 55.9869 226.028 59.0926C226.023 63.2558 224.367 67.2472 221.423 70.191C218.48 73.1349 214.488 74.7908 210.325 74.7955ZM210.325 44.2162C207.383 44.2162 204.507 45.0886 202.06 46.7233C199.614 48.3579 197.707 50.6813 196.581 53.3996C195.455 56.118 195.16 59.1091 195.734 61.9949C196.308 64.8806 197.725 67.5313 199.806 69.6119C201.886 71.6924 204.537 73.1092 207.423 73.6832C210.308 74.2572 213.3 73.9626 216.018 72.8367C218.736 71.7107 221.06 69.8039 222.694 67.3575C224.329 64.9111 225.201 62.0349 225.201 59.0926C225.197 55.1485 223.628 51.3672 220.839 48.5783C218.05 45.7894 214.269 44.2206 210.325 44.2162Z" fill="#3F3D56"/>
<path d="M210.325 70.017C216.359 70.017 221.25 65.126 221.25 59.0926C221.25 53.0592 216.359 48.1682 210.325 48.1682C204.292 48.1682 199.401 53.0592 199.401 59.0926C199.401 65.126 204.292 70.017 210.325 70.017Z" fill="#6C63FF"/>
<path d="M209.284 63.7043L206.015 59.5L207.916 58.0211L209.464 60.0116L214.694 54.4904L216.443 56.1475L209.284 63.7043Z" fill="white"/>
<path d="M135.116 99.5896C143.561 99.5896 150.406 92.7442 150.406 84.2999C150.406 75.8557 143.561 69.0102 135.116 69.0102C126.672 69.0102 119.827 75.8557 119.827 84.2999C119.827 92.7442 126.672 99.5896 135.116 99.5896Z" fill="white"/>
<path d="M135.117 100.003C132.011 100.003 128.975 99.0819 126.392 97.3564C123.81 95.631 121.797 93.1785 120.609 90.3092C119.42 87.4398 119.109 84.2825 119.715 81.2364C120.321 78.1904 121.817 75.3924 124.013 73.1963C126.209 71.0002 129.007 69.5046 132.053 68.8987C135.099 68.2928 138.256 68.6038 141.126 69.7923C143.995 70.9808 146.448 72.9935 148.173 75.5759C149.898 78.1582 150.819 81.1942 150.819 84.2999C150.815 88.4632 149.159 92.4545 146.215 95.3984C143.271 98.3422 139.28 99.9981 135.117 100.003ZM135.117 69.4235C132.174 69.4235 129.298 70.296 126.852 71.9306C124.405 73.5653 122.498 75.8886 121.372 78.607C120.246 81.3253 119.952 84.3164 120.526 87.2022C121.1 90.0879 122.517 92.7387 124.597 94.8192C126.678 96.8997 129.329 98.3165 132.214 98.8905C135.1 99.4646 138.091 99.17 140.809 98.044C143.528 96.918 145.851 95.0113 147.486 92.5648C149.12 90.1184 149.993 87.2422 149.993 84.2999C149.989 80.3558 148.42 76.5745 145.631 73.7856C142.842 70.9967 139.061 69.4279 135.117 69.4235Z" fill="#3F3D56"/>
<path d="M135.116 95.2243C141.15 95.2243 146.041 90.3333 146.041 84.2999C146.041 78.2665 141.15 73.3755 135.116 73.3755C129.083 73.3755 124.192 78.2665 124.192 84.2999C124.192 90.3333 129.083 95.2243 135.116 95.2243Z" fill="#6C63FF"/>
<path d="M134.075 88.9116L130.806 84.7074L132.707 83.2284L134.255 85.219L139.485 79.6977L141.234 81.3548L134.075 88.9116Z" fill="white"/>
</g>
<defs>
<clipPath id="clip0_79_374">
<rect width="400" height="218.601" fill="white"/>
</clipPath>
</defs>
</svg>
