<svg width="189" height="220" viewBox="0 0 189 220" fill="none" xmlns="http://www.w3.org/2000/svg">
<g clip-path="url(#clip0_83_428)">
<path d="M182.521 81.0861H5.93471C4.36129 81.0843 2.85282 80.4585 1.74024 79.3459C0.62766 78.2333 0.0018168 76.7248 0 75.1514V5.93468C0.0018168 4.36125 0.62766 2.85279 1.74024 1.74021C2.85282 0.627629 4.36129 0.00178628 5.93471 -3.05176e-05H182.521C184.095 0.00178628 185.603 0.627629 186.716 1.74021C187.828 2.85279 188.454 4.36125 188.456 5.93468V75.1514C188.454 76.7248 187.828 78.2333 186.716 79.3459C185.603 80.4585 184.095 81.0843 182.521 81.0861Z" fill="#F2F2F2"/>
<path d="M141.337 77.3011H33.9651C25.9639 77.2921 18.293 74.1096 12.6352 68.4519C6.97751 62.7941 3.79504 55.1232 3.78601 47.122V33.9674C3.79503 25.9662 6.97749 18.2952 12.6352 12.6375C18.2929 6.97971 25.9639 3.79719 33.9651 3.78812H154.492C162.493 3.79719 170.164 6.97971 175.822 12.6375C181.479 18.2952 184.662 25.9662 184.671 33.9674C184.658 45.4562 180.088 56.4708 171.964 64.5946C163.841 72.7184 152.826 77.2881 141.337 77.3011Z" fill="white"/>
<path d="M113.64 23.6026H42.6653C42.2594 23.6026 41.8701 23.4413 41.5831 23.1543C41.296 22.8673 41.1348 22.478 41.1348 22.072C41.1348 21.6661 41.296 21.2768 41.5831 20.9898C41.8701 20.7027 42.2594 20.5415 42.6653 20.5415H113.64C114.046 20.5415 114.435 20.7027 114.722 20.9898C115.009 21.2768 115.17 21.6661 115.17 22.072C115.17 22.478 115.009 22.8673 114.722 23.1543C114.435 23.4413 114.046 23.6026 113.64 23.6026Z" fill="#E6E6E6"/>
<path d="M149.568 39.9327H42.6653C42.2594 39.9327 41.8701 39.7715 41.5831 39.4844C41.296 39.1974 41.1348 38.8081 41.1348 38.4021C41.1348 37.9962 41.296 37.6069 41.5831 37.3199C41.8701 37.0328 42.2594 36.8716 42.6653 36.8716H149.568C149.974 36.8716 150.363 37.0328 150.65 37.3199C150.937 37.6069 151.099 37.9962 151.099 38.4021C151.099 38.8081 150.937 39.1974 150.65 39.4844C150.363 39.7715 149.974 39.9327 149.568 39.9327Z" fill="#E6E6E6"/>
<path d="M149.568 56.2628H42.6653C42.2594 56.2628 41.8701 56.1015 41.5831 55.8145C41.296 55.5275 41.1348 55.1382 41.1348 54.7322C41.1348 54.3263 41.296 53.937 41.5831 53.65C41.8701 53.3629 42.2594 53.2017 42.6653 53.2017H149.568C149.974 53.2017 150.363 53.3629 150.65 53.65C150.937 53.937 151.099 54.3263 151.099 54.7322C151.099 55.1382 150.937 55.5275 150.65 55.8145C150.363 56.1015 149.974 56.2628 149.568 56.2628Z" fill="#E6E6E6"/>
<path d="M149.568 56.2628H42.6653C42.2594 56.2628 41.8701 56.1015 41.5831 55.8145C41.296 55.5275 41.1348 55.1382 41.1348 54.7322C41.1348 54.3263 41.296 53.937 41.5831 53.65C41.8701 53.3629 42.2594 53.2017 42.6653 53.2017H149.568C149.974 53.2017 150.363 53.3629 150.65 53.65C150.937 53.937 151.099 54.3263 151.099 54.7322C151.099 55.1382 150.937 55.5275 150.65 55.8145C150.363 56.1015 149.974 56.2628 149.568 56.2628Z" fill="#E6E6E6"/>
<path d="M106.15 41.807C106.167 42.268 106.285 42.7197 106.495 43.1302C106.706 43.5408 107.004 43.9002 107.368 44.1831C107.733 44.4661 108.155 44.6657 108.604 44.7679C109.054 44.8701 109.521 44.8724 109.972 44.7747L115.809 54.3503L118.293 49.0787L112.37 40.7938C112.155 40.0472 111.674 39.4052 111.018 38.9894C110.362 38.5737 109.576 38.413 108.81 38.5379C108.043 38.6628 107.349 39.0646 106.859 39.6671C106.369 40.2696 106.116 41.031 106.15 41.807H106.15Z" fill="#FFB6B6"/>
<path d="M149.953 69.25L129.837 58.3391L123.493 52.3863C123.493 52.3863 120.734 51.6478 121.75 50.751C122.765 49.8542 119.872 48.9892 119.872 48.9892L116.466 45.7936L111.626 49.2182L113.026 51.3895C113.026 51.3895 112.93 54.984 114.899 54.2924C116.868 53.6009 116.376 56.5821 116.376 56.5821L128.13 74.8013L149.953 69.25Z" fill="#3F3D56"/>
<path d="M90.5744 58.9703C101.426 58.9703 110.222 50.1736 110.222 39.3224C110.222 28.4712 101.426 19.6745 90.5744 19.6745C79.7232 19.6745 70.9265 28.4712 70.9265 39.3224C70.9265 50.1736 79.7232 58.9703 90.5744 58.9703Z" fill="#6C63FF"/>
<path d="M150.015 212.361H145.93L143.985 196.603H150.015V212.361Z" fill="#FFB6B6"/>
<path d="M152.171 219.439H149.242L148.719 216.673L147.379 219.439H139.609C139.236 219.439 138.874 219.32 138.574 219.1C138.274 218.879 138.052 218.568 137.941 218.212C137.83 217.857 137.836 217.475 137.958 217.123C138.079 216.771 138.31 216.467 138.616 216.255L144.822 211.97V209.173L151.348 209.563L152.171 219.439Z" fill="#2F2E41"/>
<path d="M117.341 212.361H113.255L111.311 196.603H117.341V212.361Z" fill="#FFB6B6"/>
<path d="M119.497 219.439H116.567L116.044 216.673L114.705 219.439H106.935C106.562 219.439 106.199 219.32 105.899 219.1C105.599 218.879 105.378 218.568 105.267 218.212C105.156 217.857 105.162 217.475 105.283 217.123C105.405 216.771 105.636 216.467 105.942 216.255L112.147 211.97V209.173L118.674 209.563L119.497 219.439Z" fill="#2F2E41"/>
<path d="M145.68 93.1877H125.061V116.662H145.68V93.1877Z" fill="#FFB6B6"/>
<path d="M125.536 104.766L122.047 108.89L116.02 121.579L100.832 157.715L97.6205 165.357L100.214 178.866C100.214 178.866 100.634 188.384 100.634 189.942C100.634 193.114 103.287 194.872 103.287 194.872L105.234 205.01L124.109 204.217C124.109 204.217 123.45 193.042 119.497 190.223C115.544 187.404 113.727 172.713 113.727 172.713L111.578 166.195L132.515 141.376L132.65 150.052L132.716 154.251C132.716 154.251 129.65 181.562 133.224 186.862C136.798 192.162 133.297 191.539 133.297 191.539L133.467 202.472L155.831 202.631L150.898 171.153C150.898 171.153 148.392 169.175 149.733 167.187C151.073 165.198 148.433 162.763 148.433 162.763L149.617 138.189C149.617 138.189 148.307 133.944 149.848 133.393C151.39 132.841 150.051 129.191 150.051 129.191L150.28 124.435L145.68 109.683L125.536 104.766Z" fill="#2F2E41"/>
<path d="M145.997 93.1877L148.218 86.526L149.804 84.3054L150.439 77.9609C150.439 60.8306 146.618 63.6832 146.618 63.6832L144.411 57.6584L134.26 57.3412L127.757 63.5271L122.364 65.4304L120.252 76.4034L124.109 88.1121L125.061 94.4566C123.245 97.808 123.399 96.2228 124.902 98.7392L142.825 103.656C149.17 105.877 149.17 100.167 147.898 98.7392C146.625 97.3116 145.997 93.1877 145.997 93.1877Z" fill="#3F3D56"/>
<path d="M138.024 55.2117C143.222 55.2117 147.435 50.9984 147.435 45.8011C147.435 40.6038 143.222 36.3906 138.024 36.3906C132.827 36.3906 128.614 40.6038 128.614 45.8011C128.614 50.9984 132.827 55.2117 138.024 55.2117Z" fill="#FFB6B6"/>
<path d="M150.588 58.3626C150.676 58.5122 150.73 58.6799 150.745 58.8532C150.76 59.0265 150.735 59.2008 150.673 59.3633C150.612 59.5259 150.514 59.6723 150.387 59.7918C150.261 59.9113 150.109 60.0007 149.944 60.0534C148.681 60.4722 147.904 61.6935 146.997 62.6706C146.093 63.6445 144.637 64.4534 143.482 63.7904C142.33 63.1305 142.251 61.4461 141.287 60.5325C140.348 59.6442 138.787 59.7521 137.683 60.4278L137.65 60.4481C137.459 60.5723 137.237 60.638 137.009 60.6369C136.782 60.6359 136.559 60.5682 136.37 60.4423C136.181 60.3163 136.032 60.1376 135.943 59.9282C135.854 59.7188 135.829 59.488 135.87 59.2642C136.256 57.2071 136.643 55.1502 137.029 53.0935C136.014 55.5394 134.54 57.7684 132.687 59.6601C132.176 60.2492 131.529 60.7045 130.802 60.9861C130.142 61.1955 129.502 60.5134 128.861 60.6371C130.453 59.2445 135.808 50.3178 134.85 44.3507C133.724 44.4776 132.598 44.6045 131.472 44.7314C131.35 44.1985 131.089 43.7071 130.717 43.3071C130.762 43.8258 130.696 44.3482 130.523 44.8393C130.054 44.8932 129.581 44.944 129.111 44.9979C128.458 45.0709 127.747 45.1343 127.186 44.7917C126.25 44.2207 126.222 42.8693 126.488 41.8034C127.268 38.7041 129.635 36.1124 132.531 34.7547C135.427 33.4001 136.284 36.4169 139.336 35.4526C145.363 33.5492 149.982 36.804 151.609 42.8439C152.976 47.91 151.983 53.287 150.588 58.3626Z" fill="#2F2E41"/>
<path d="M176.64 219.644H165.117L165.068 219.554C164.92 219.287 164.778 219.004 164.645 218.713C163.458 216.172 162.957 213.266 162.514 210.701L162.181 208.769C162.14 208.535 162.171 208.294 162.268 208.077C162.365 207.86 162.525 207.678 162.727 207.552C162.929 207.427 163.163 207.365 163.4 207.373C163.638 207.382 163.867 207.461 164.059 207.601C165.81 208.875 167.562 210.148 169.315 211.42C169.978 211.903 170.736 212.462 171.462 213.066C171.532 212.726 171.605 212.385 171.679 212.048C171.729 211.816 171.848 211.604 172.019 211.44C172.191 211.275 172.408 211.166 172.642 211.125C172.876 211.085 173.117 211.115 173.334 211.212C173.551 211.31 173.734 211.469 173.859 211.671L175.208 213.837C176.191 215.419 177.059 216.978 176.882 218.659C176.883 218.679 176.881 218.7 176.877 218.72C176.842 218.996 176.776 219.268 176.682 219.529L176.64 219.644Z" fill="#F0F0F0"/>
<path d="M188.206 219.893L78.7072 220C78.598 219.999 78.4933 219.956 78.4163 219.878C78.3392 219.801 78.2959 219.696 78.2959 219.587C78.2959 219.477 78.3392 219.372 78.4163 219.295C78.4933 219.217 78.598 219.174 78.7072 219.173L188.206 219.066C188.315 219.067 188.42 219.111 188.497 219.188C188.574 219.266 188.618 219.371 188.618 219.48C188.618 219.589 188.574 219.694 188.497 219.771C188.42 219.849 188.315 219.893 188.206 219.893Z" fill="#CACACA"/>
<path d="M88.7884 65.767L76.7439 55.5956C76.3322 55.2471 76.0756 54.7496 76.0303 54.2121C75.985 53.6747 76.1547 53.1412 76.5022 52.7287L78.719 50.1037C79.0675 49.692 79.565 49.4353 80.1025 49.39C80.64 49.3447 81.1734 49.5144 81.5859 49.862L93.6303 60.0334C94.042 60.3819 94.2987 60.8794 94.344 61.4169C94.3893 61.9543 94.2196 62.4878 93.872 62.9003L91.6552 65.5253C91.3068 65.937 90.8092 66.1937 90.2718 66.239C89.7343 66.2843 89.2008 66.1145 88.7884 65.767Z" fill="#3F3D56"/>
<path d="M77.376 52.9403C77.1887 53.1626 77.0973 53.4501 77.1217 53.7397C77.1461 54.0293 77.2844 54.2974 77.5062 54.4852L89.5507 64.6567C89.7729 64.844 90.0604 64.9354 90.3501 64.911C90.6397 64.8866 90.9078 64.7483 91.0956 64.5264L93.3124 61.9014C93.4996 61.6792 93.5911 61.3917 93.5667 61.102C93.5423 60.8124 93.404 60.5443 93.1821 60.3565L81.1377 50.1851C80.9154 49.9978 80.628 49.9064 80.3383 49.9308C80.0487 49.9552 79.7806 50.0935 79.5928 50.3153L77.376 52.9403Z" fill="white"/>
<path d="M84.4469 56.8944C84.4051 56.9529 84.3502 57.0008 84.2867 57.0345C84.2231 57.0681 84.1526 57.0864 84.0807 57.0881L82.1883 57.1315C82.1275 57.1329 82.067 57.1223 82.0103 57.1003C81.9536 57.0784 81.9018 57.0454 81.8578 57.0034C81.8139 56.9614 81.7786 56.9112 81.754 56.8555C81.7295 56.7999 81.7161 56.74 81.7147 56.6792C81.7133 56.6184 81.7239 56.5579 81.7459 56.5012C81.7679 56.4445 81.8008 56.3927 81.8428 56.3487C81.8848 56.3047 81.9351 56.2695 81.9907 56.2449C82.0463 56.2204 82.1063 56.207 82.1671 56.2056L83.4051 56.1771L82.1859 52.96C82.1427 52.8452 82.1468 52.718 82.1973 52.6063C82.2478 52.4945 82.3405 52.4073 82.4552 52.3639C82.5698 52.3204 82.6971 52.3242 82.8089 52.3744C82.9208 52.4247 83.0082 52.5172 83.0519 52.6318L84.5032 56.461C84.5294 56.5303 84.5387 56.6048 84.5302 56.6784C84.5216 56.752 84.4956 56.8224 84.4542 56.8839L84.4469 56.8944Z" fill="#6C63FF"/>
<path d="M84.6896 57.7029C85.1461 57.7699 85.5823 57.9363 85.9675 58.1901C86.3527 58.444 86.6776 58.7792 86.9192 59.1722C87.1609 59.5652 87.3134 60.0064 87.3661 60.4647C87.4188 60.9231 87.3703 61.3874 87.2242 61.8249L96.1083 68.6685L90.5979 70.5648L83.0062 63.7753C82.2873 63.481 81.7014 62.9333 81.3594 62.2359C81.0175 61.5385 80.9432 60.7399 81.1507 59.9914C81.3582 59.2429 81.8331 58.5965 82.4853 58.1747C83.1376 57.753 83.9219 57.5851 84.6896 57.7029L84.6896 57.7029Z" fill="#FFB6B6"/>
<path d="M130.942 61.0867L108.196 75.072C108.196 75.072 99.0251 71.6787 100.817 70.1078C102.61 68.5369 96.9039 67.475 96.9039 67.475L90.6007 63.2343L86.9431 67.4851C86.9431 67.4851 87.6096 74.3897 88.7435 73.1942C89.8775 71.9986 91.5725 75.2645 91.5725 75.2645C91.5725 75.2645 92.0733 78.9112 95.3013 77.9935C98.5293 77.0758 107.191 86.695 107.191 86.695L135.185 76.2544L130.942 61.0867Z" fill="#3F3D56"/>
<path d="M89.8835 47.2039C89.6198 47.2039 89.3598 47.1425 89.1239 47.0246C88.8881 46.9066 88.6829 46.7354 88.5248 46.5244L84.3588 40.9697C84.225 40.7912 84.1276 40.5882 84.0723 40.3721C84.0169 40.156 84.0047 39.9311 84.0362 39.7103C84.0678 39.4895 84.1425 39.2771 84.2562 39.0851C84.3698 38.8932 84.5202 38.7255 84.6986 38.5917C85.059 38.3214 85.512 38.2054 85.958 38.2691C86.1788 38.3007 86.3912 38.3754 86.5832 38.4891C86.7751 38.6027 86.9428 38.7531 87.0766 38.9315L89.8021 42.5652L96.8022 32.0652C97.0521 31.6904 97.4406 31.4302 97.8824 31.3418C98.3242 31.2535 98.7829 31.3442 99.1578 31.5941C99.5326 31.844 99.7928 32.2326 99.8812 32.6743C99.9695 33.1161 99.8788 33.5749 99.6289 33.9497L91.297 46.4475C91.1463 46.6735 90.9436 46.8601 90.7059 46.9917C90.4682 47.1232 90.2024 47.1958 89.9308 47.2034C89.915 47.2037 89.8993 47.2039 89.8835 47.2039Z" fill="white"/>
</g>
<defs>
<clipPath id="clip0_83_428">
<rect width="188.617" height="220" fill="white"/>
</clipPath>
</defs>
</svg>
