<svg width="16" height="16" viewBox="0 0 16 16" fill="none" xmlns="http://www.w3.org/2000/svg">
<path d="M5.026 15C11.064 15 14.367 9.99701 14.367 5.66601C14.367 5.52601 14.367 5.38401 14.361 5.24401C15.0041 4.77849 15.5591 4.20216 16 3.54201C15.3993 3.80686 14.7628 3.98141 14.111 4.06001C14.7975 3.64964 15.3117 3.00398 15.558 2.24301C14.913 2.62513 14.207 2.89338 13.471 3.03601C12.9762 2.50903 12.3214 2.15992 11.6081 2.04276C10.8948 1.9256 10.1627 2.04693 9.52534 2.38794C8.88796 2.72896 8.38081 3.27064 8.08245 3.92907C7.78409 4.5875 7.71118 5.32594 7.875 6.03001C6.56974 5.96456 5.29282 5.62547 4.12704 5.03475C2.96127 4.44402 1.93268 3.61485 1.108 2.60101C0.68934 3.32409 0.561574 4.17941 0.750646 4.99327C0.939718 5.80714 1.43145 6.51854 2.126 6.98301C1.60554 6.96532 1.09652 6.82557 0.64 6.57501V6.62001C0.640897 7.37749 0.903307 8.11143 1.38287 8.69777C1.86244 9.28411 2.52975 9.68688 3.272 9.83801C2.99026 9.91562 2.69923 9.95431 2.407 9.95301C2.20098 9.95363 1.99538 9.93454 1.793 9.89601C2.00279 10.5481 2.41127 11.1182 2.96125 11.5265C3.51122 11.9348 4.17513 12.1609 4.86 12.173C3.69656 13.0868 2.2594 13.5824 0.78 13.58C0.519321 13.5811 0.258823 13.5661 0 13.535C1.50151 14.4923 3.2453 15.0006 5.026 15V15Z" fill="#111111"/>
</svg>
