<svg width="16" height="19" viewBox="0 0 16 19" fill="none" xmlns="http://www.w3.org/2000/svg">
<path d="M14.5571 2.28572H1.45C0.660714 2.28572 0 2.94644 0 3.73572V8.56429C0 13.0179 3.56071 16.5714 8.00714 16.5714C12.4357 16.5714 16 13.0179 16 8.56429V3.73572C16 2.93572 15.3679 2.28572 14.5571 2.28572V2.28572ZM8.77143 11.875C8.32857 12.2964 7.65 12.2714 7.25714 11.875C3.19643 7.98572 3.15357 8.12144 3.15357 7.47501C3.15357 6.87144 3.64643 6.37858 4.25 6.37858C4.85714 6.37858 4.825 6.51429 8.00714 9.56786C11.2429 6.46429 11.1714 6.37858 11.775 6.37858C12.3786 6.37858 12.8714 6.87144 12.8714 7.47501C12.8714 8.11072 12.7679 8.03572 8.77143 11.875V11.875Z" fill="#111111"/>
</svg>
