<svg width="130" height="47" viewBox="0 0 130 47" fill="none" xmlns="http://www.w3.org/2000/svg">
<path d="M41.0585 17.5969C49.1958 17.5969 55.7222 24.1646 55.7222 32.302C55.7222 40.4393 49.1958 46.9244 41.0585 46.9244C32.9211 46.9244 26.436 40.4393 26.436 32.302C26.4773 24.1646 32.9211 17.5969 41.0585 17.5969ZM41.0585 40.398C45.5195 40.398 49.1958 36.7217 49.1958 32.302C49.1958 27.8409 45.5195 24.1233 41.0585 24.1233C36.6387 24.1233 32.9624 27.8409 32.9624 32.302C32.9624 36.7217 36.6387 40.398 41.0585 40.398Z" fill="#1D1E1B"/>
<path d="M62.9093 23.9994H55.7633C55.309 23.9994 54.9785 23.6277 54.9785 23.2146V18.7948C54.9785 18.3818 55.309 18.01 55.7633 18.01H76.2512C76.7056 18.01 77.0361 18.3818 77.0361 18.7948V23.2146C77.0361 23.6277 76.7056 23.9994 76.2512 23.9994H69.3118V45.7265C69.3118 46.1396 68.94 46.5113 68.527 46.5113H63.6528C63.2398 46.5113 62.868 46.1396 62.868 45.7265V23.9994H62.9093Z" fill="#1D1E1B"/>
<path d="M88.5604 23.9994H82.0753C81.621 23.9994 81.2905 23.6277 81.2905 23.2146V18.7948C81.2905 18.3818 81.621 18.01 82.0753 18.01H102.522C102.976 18.01 103.307 18.3818 103.307 18.7948V23.2146C103.307 23.6277 102.976 23.9994 102.522 23.9994H95.0042V45.7265C95.0042 46.1396 94.6324 46.5113 94.2194 46.5113H89.3452C88.9322 46.5113 88.5604 46.1396 88.5604 45.7265V23.9994V23.9994Z" fill="#1D1E1B"/>
<path d="M114.129 32.7977L105.124 19.2079C104.794 18.6709 105.124 18.01 105.785 18.01H111.072C111.403 18.01 111.609 18.2165 111.733 18.3818L117.392 26.7256L123.051 18.3818C123.175 18.2165 123.34 18.01 123.712 18.01H128.999C129.66 18.01 129.991 18.6709 129.66 19.2079L120.531 32.7564V45.7265C120.531 46.1396 120.16 46.5113 119.747 46.5113H114.914C114.459 46.5113 114.129 46.1396 114.129 45.7265V32.7977Z" fill="#1D1E1B"/>
<path d="M45.478 5.74206C45.478 8.92264 42.917 11.4836 39.7364 11.4836C36.5559 11.4836 33.9949 8.92264 33.9949 5.74206C33.9949 2.56148 36.5559 0.000485047 39.7364 0.000485047C42.8757 -0.0408212 45.478 2.56148 45.478 5.74206Z" fill="#C2E5F1"/>
<path d="M18.1333 5.74206C18.1333 8.92264 15.5723 11.4836 12.3917 11.4836C9.21113 11.4836 6.65015 8.92264 6.65015 5.74206C6.65015 2.56148 9.21113 0.000485047 12.3917 0.000485047C15.5723 -0.0408212 18.1333 2.56148 18.1333 5.74206Z" fill="#FAD6BC"/>
<path d="M71.1706 5.74206C71.1706 8.92264 68.6097 11.4836 65.4291 11.4836C62.2485 11.4836 59.6875 8.92264 59.6875 5.74206C59.6875 2.56148 62.2485 0.000485047 65.4291 0.000485047C68.6097 -0.0408212 71.1706 2.56148 71.1706 5.74206Z" fill="#E9EBA1"/>
<path d="M96.9045 5.74206C96.9045 8.92264 94.3435 11.4836 91.163 11.4836C87.9824 11.4836 85.4214 8.92264 85.4214 5.74206C85.4214 2.56148 87.9824 0.000485047 91.163 0.000485047C94.3435 -0.0408212 96.9045 2.56148 96.9045 5.74206Z" fill="#A5D4BA"/>
<path d="M123.176 5.74206C123.176 8.92265 120.615 11.4836 117.434 11.4836C114.253 11.4836 111.692 8.92265 111.692 5.74206C111.692 2.56148 114.253 0.000488281 117.434 0.000488281C120.615 0.000488281 123.176 2.56148 123.176 5.74206Z" fill="#D5C8E4"/>
<path d="M10.6983 18.01H0.784829C0.371766 18.01 0 18.3405 0 18.7948V23.1733C0 23.669 0.0826151 23.9168 0.660903 23.9168H10.6157C15.1594 23.9168 18.5878 27.6344 18.1748 32.1781V32.2194C18.1748 36.8457 14.829 40.4806 10.244 40.4806H6.31987H0.578298C0.0826226 40.4806 0 40.8524 0 41.1002V45.6852C0 46.1396 0.371766 46.5113 0.784829 46.5113H10.657C18.5052 46.5113 24.949 40.1089 24.949 32.2194C24.9903 24.4125 18.5465 18.01 10.6983 18.01Z" fill="#1D1E1B"/>
</svg>
