<svg width="189" height="38" viewBox="0 0 189 38" fill="none" xmlns="http://www.w3.org/2000/svg">
<path d="M32.5218 13.9384C38.9673 13.9384 44.1368 19.1406 44.1368 25.5862C44.1368 32.0317 38.9673 37.1685 32.5218 37.1685C26.0762 37.1685 20.9395 32.0317 20.9395 25.5862C20.9722 19.1406 26.0762 13.9384 32.5218 13.9384ZM32.5218 31.999C36.0554 31.999 38.9673 29.087 38.9673 25.5862C38.9673 22.0526 36.0554 19.1079 32.5218 19.1079C29.0209 19.1079 26.109 22.0526 26.109 25.5862C26.109 29.087 29.0209 31.999 32.5218 31.999Z" fill="#1D1E1B"/>
<path d="M49.8298 19.0097H44.1695C43.8096 19.0097 43.5479 18.7153 43.5479 18.3881V14.8872C43.5479 14.56 43.8096 14.2656 44.1695 14.2656H60.3978C60.7577 14.2656 61.0195 14.56 61.0195 14.8872V18.3881C61.0195 18.7153 60.7577 19.0097 60.3978 19.0097H54.9011V36.2196C54.9011 36.5468 54.6067 36.8413 54.2795 36.8413H50.4187C50.0915 36.8413 49.7971 36.5468 49.7971 36.2196V19.0097H49.8298Z" fill="#1D1E1B"/>
<path d="M70.1481 19.0097H65.0113C64.6514 19.0097 64.3896 18.7153 64.3896 18.3881V14.8872C64.3896 14.56 64.6514 14.2656 65.0113 14.2656H81.2069C81.5668 14.2656 81.8286 14.56 81.8286 14.8872V18.3881C81.8286 18.7153 81.5668 19.0097 81.2069 19.0097H75.2521V36.2196C75.2521 36.5468 74.9577 36.8413 74.6305 36.8413H70.7697C70.4426 36.8413 70.1481 36.5468 70.1481 36.2196V19.0097V19.0097Z" fill="#1D1E1B"/>
<path d="M90.4003 25.9788L83.2677 15.2144C83.006 14.7891 83.2677 14.2656 83.7912 14.2656H87.9792C88.2409 14.2656 88.4045 14.4292 88.5027 14.56L92.9851 21.1692L97.4675 14.56C97.5657 14.4292 97.6965 14.2656 97.991 14.2656H102.179C102.702 14.2656 102.964 14.7891 102.702 15.2144L95.4717 25.946V36.2196C95.4717 36.5468 95.1772 36.8413 94.85 36.8413H91.022C90.6621 36.8413 90.4003 36.5468 90.4003 36.2196V25.9788Z" fill="#1D1E1B"/>
<path d="M36.0225 4.54825C36.0225 7.06756 33.9939 9.09611 31.4746 9.09611C28.9553 9.09611 26.9268 7.06756 26.9268 4.54825C26.9268 2.02893 28.9553 0.000384202 31.4746 0.000384202C33.9612 -0.0323342 36.0225 2.02893 36.0225 4.54825Z" fill="#C2E5F1"/>
<path d="M14.3633 4.54825C14.3633 7.06756 12.3347 9.09611 9.81543 9.09611C7.29612 9.09611 5.26758 7.06756 5.26758 4.54825C5.26758 2.02893 7.29612 0.000384202 9.81543 0.000384202C12.3347 -0.0323342 14.3633 2.02893 14.3633 4.54825Z" fill="#FAD6BC"/>
<path d="M56.374 4.54825C56.374 7.06756 54.3455 9.09611 51.8262 9.09611C49.3069 9.09611 47.2783 7.06756 47.2783 4.54825C47.2783 2.02893 49.3069 0.000384202 51.8262 0.000384202C54.3455 -0.0323342 56.374 2.02893 56.374 4.54825Z" fill="#E9EBA1"/>
<path d="M76.7568 4.54825C76.7568 7.06756 74.7283 9.09611 72.209 9.09611C69.6897 9.09611 67.6611 7.06756 67.6611 4.54825C67.6611 2.02893 69.6897 0.000384202 72.209 0.000384202C74.7283 -0.0323342 76.7568 2.02893 76.7568 4.54825Z" fill="#A5D4BA"/>
<path d="M97.5664 4.54829C97.5664 7.06761 95.5379 9.09615 93.0185 9.09615C90.4992 9.09615 88.4707 7.06761 88.4707 4.54829C88.4707 2.02897 90.4992 0.000427246 93.0185 0.000427246C95.5379 0.000427246 97.5664 2.02897 97.5664 4.54829Z" fill="#D5C8E4"/>
<path d="M8.47407 14.2656H0.621657C0.294474 14.2656 0 14.5273 0 14.8872V18.3554C0 18.748 0.0654388 18.9443 0.523496 18.9443H8.40863C12.0077 18.9443 14.7233 21.8889 14.3961 25.488V25.5207C14.3961 29.1852 11.7459 32.0644 8.11417 32.0644H5.00592H0.458065C0.0654448 32.0644 0 32.3588 0 32.5552V36.1869C0 36.5468 0.294474 36.8413 0.621657 36.8413H8.44135C14.6578 36.8413 19.7619 31.7699 19.7619 25.5207C19.7946 19.3369 14.6906 14.2656 8.47407 14.2656Z" fill="#1D1E1B"/>
<path d="M169.145 36.124C169.145 36.4479 169.404 36.7395 169.728 36.7395H177.631C183.883 36.7395 189 31.654 189 25.3702C189 19.151 183.883 14.0656 177.631 14.0656H169.728C169.404 14.0656 169.145 14.3571 169.145 14.681V36.124ZM174.198 31.9456V18.8271H177.307C180.967 18.8271 183.623 21.7099 183.623 25.3702C183.623 29.0627 180.967 31.9456 177.307 31.9456H174.198Z" fill="#1D1E1B"/>
<path d="M146.382 36.1241C146.382 36.448 146.674 36.7395 146.997 36.7395H150.852C151.208 36.7395 151.467 36.448 151.467 36.1241V24.0422H151.5L164.294 36.9015C164.359 36.9663 164.618 37.0634 164.715 37.0634H165.234C165.558 37.0634 165.849 36.8043 165.849 36.4804V14.6811C165.849 14.3572 165.558 14.0657 165.234 14.0657H161.347C160.99 14.0657 160.731 14.3572 160.731 14.6811V26.18H160.699L147.775 13.7418H146.965C146.641 13.7418 146.35 14.0009 146.35 14.3248L146.382 36.1241Z" fill="#1D1E1B"/>
<path d="M122.243 36.7395H125.807C126.454 36.7395 126.811 36.3508 126.973 35.9621L128.139 33.3708H136.949L138.115 35.9297C138.407 36.5452 138.666 36.7395 139.249 36.7395H142.844C143.33 36.7395 143.589 36.3184 143.395 35.8974L133.256 14.0981C133.159 13.9037 132.933 13.7418 132.706 13.7418H132.382C132.155 13.7418 131.928 13.9037 131.831 14.0981L121.693 35.8974C121.498 36.3184 121.758 36.7395 122.243 36.7395ZM130.082 28.9656L132.511 23.6211H132.544L135.006 28.9656H130.082Z" fill="#1D1E1B"/>
<path d="M106.335 36.124C106.335 36.4479 106.594 36.7395 106.95 36.7395H119.129C119.486 36.7395 119.745 36.4479 119.745 36.124V32.5934C119.745 32.2695 119.486 31.978 119.129 31.978H111.42V14.681C111.42 14.3571 111.129 14.0656 110.805 14.0656H106.95C106.594 14.0656 106.335 14.3571 106.335 14.681V36.124Z" fill="#1D1E1B"/>
</svg>
