<svg width="16" height="16" viewBox="0 0 16 16" fill="none" xmlns="http://www.w3.org/2000/svg">
<path d="M13.9578 4.58281L11.4172 2.04219C11.2297 1.85469 10.975 1.75 10.7094 1.75H2.25C1.97344 1.75 1.75 1.97344 1.75 2.25V13.75C1.75 14.0266 1.97344 14.25 2.25 14.25H13.75C14.0266 14.25 14.25 14.0266 14.25 13.75V5.28906C14.25 5.02344 14.1453 4.77031 13.9578 4.58281ZM6 2.75H10V4.5H6V2.75ZM8 11.4062C6.75781 11.4062 5.75 10.3984 5.75 9.15625C5.75 7.91406 6.75781 6.90625 8 6.90625C9.24219 6.90625 10.25 7.91406 10.25 9.15625C10.25 10.3984 9.24219 11.4062 8 11.4062ZM8 7.90625C7.30937 7.90625 6.75 8.46562 6.75 9.15625C6.75 9.84688 7.30937 10.4062 8 10.4062C8.69063 10.4062 9.25 9.84688 9.25 9.15625C9.25 8.46562 8.69063 7.90625 8 7.90625Z" fill="#111111"/>
</svg>
