<svg width="400" height="251" viewBox="0 0 400 251" fill="none" xmlns="http://www.w3.org/2000/svg">
<g clip-path="url(#clip0_77_460)">
<path d="M345.714 166.919C345.308 166.257 345.052 165.513 344.964 164.742C344.876 163.97 344.958 163.188 345.205 162.451C345.452 161.715 345.857 161.041 346.393 160.478C346.928 159.915 347.58 159.477 348.303 159.193L347.552 140.324L355.952 145.396L355.378 162.537C355.774 163.783 355.699 165.132 355.167 166.327C354.635 167.521 353.684 168.48 352.492 169.02C351.301 169.56 349.953 169.644 348.704 169.257C347.455 168.87 346.391 168.038 345.714 166.919Z" fill="#A0616A"/>
<path d="M356.926 154.687L349.458 155.88C349.144 155.93 348.824 155.917 348.516 155.841C348.207 155.765 347.917 155.629 347.663 155.439C347.408 155.249 347.194 155.01 347.033 154.737C346.872 154.463 346.768 154.16 346.726 153.845L343.566 130.05L327.954 108.685C327.376 107.893 326.966 106.992 326.75 106.036C326.533 105.081 326.515 104.091 326.696 103.127C326.877 102.164 327.253 101.248 327.801 100.436C328.35 99.6241 329.058 98.9329 329.884 98.4052L329.884 98.4052C331.487 97.3804 333.432 97.0347 335.291 97.4439C337.149 97.8532 338.769 98.984 339.794 100.588L355.739 125.539L358.912 152.056C358.933 152.225 358.935 152.396 358.919 152.566C358.87 153.091 358.647 153.584 358.286 153.968C357.925 154.352 357.447 154.605 356.926 154.687Z" fill="#6C63FF"/>
<path d="M331.18 243.005H324.701L321.619 218.017L331.181 218.017L331.18 243.005Z" fill="#A0616A"/>
<path d="M320.074 241.154H332.568V249.021H312.207C312.207 246.934 313.036 244.933 314.511 243.458C315.986 241.983 317.987 241.154 320.074 241.154Z" fill="#2F2E41"/>
<path d="M358.513 231.917L353.672 236.222L335.629 218.432L341.905 213.246L358.513 231.917Z" fill="#A0616A"/>
<path d="M348.985 237.915L358.32 229.611L363.549 235.489L348.336 249.021C347.649 248.249 347.121 247.35 346.782 246.374C346.443 245.398 346.3 244.365 346.36 243.334C346.42 242.302 346.683 241.293 347.134 240.363C347.584 239.433 348.213 238.602 348.985 237.915Z" fill="#2F2E41"/>
<path d="M266.076 100.115C266.833 99.9383 267.619 99.9301 268.379 100.09C269.139 100.251 269.855 100.576 270.476 101.043C271.097 101.51 271.608 102.107 271.973 102.793C272.338 103.478 272.548 104.236 272.589 105.011L290.728 110.259L283.263 116.627L267.182 110.668C265.874 110.65 264.618 110.152 263.652 109.27C262.687 108.388 262.078 107.183 261.942 105.882C261.805 104.581 262.151 103.276 262.913 102.213C263.675 101.15 264.801 100.403 266.076 100.115V100.115Z" fill="#A0616A"/>
<path d="M322.631 82.0063C329.799 82.0063 335.61 76.1955 335.61 69.0276C335.61 61.8596 329.799 56.0488 322.631 56.0488C315.463 56.0488 309.652 61.8596 309.652 69.0276C309.652 76.1955 315.463 82.0063 322.631 82.0063Z" fill="#A0616A"/>
<path d="M331.975 238.326L322.958 237.605C322.376 237.558 321.831 237.299 321.427 236.876C321.024 236.454 320.79 235.897 320.771 235.313L318.254 159.307C318.234 158.72 318.432 158.146 318.81 157.696C319.189 157.247 319.72 156.954 320.302 156.874L338.279 154.365C338.65 154.313 339.027 154.35 339.381 154.471C339.735 154.593 340.055 154.796 340.315 155.065C340.575 155.333 340.769 155.659 340.879 156.016C340.99 156.373 341.015 156.752 340.952 157.12L334.073 197.413C334.054 197.523 334.045 197.636 334.047 197.748L334.543 235.924C334.547 236.239 334.488 236.552 334.37 236.844C334.253 237.137 334.078 237.402 333.857 237.627C333.635 237.851 333.372 238.029 333.081 238.15C332.79 238.272 332.478 238.334 332.163 238.334C332.101 238.334 332.038 238.331 331.975 238.326Z" fill="#2F2E41"/>
<path d="M343.523 229.21L312.547 194.736C312.325 194.488 312.156 194.196 312.054 193.879C311.951 193.562 311.916 193.227 311.952 192.895L315.864 156.219C315.928 155.608 316.227 155.046 316.697 154.65C317.168 154.255 317.773 154.057 318.386 154.099L337.397 155.366C337.76 155.391 338.113 155.498 338.429 155.68C338.744 155.863 339.013 156.115 339.216 156.418C339.418 156.72 339.548 157.066 339.596 157.427C339.644 157.788 339.608 158.155 339.491 158.5L328.101 192.197C327.992 192.518 327.973 192.863 328.047 193.194C328.122 193.525 328.286 193.83 328.522 194.073L354.834 221.342C355.084 221.601 355.271 221.912 355.383 222.253C355.495 222.595 355.528 222.957 355.479 223.313C355.431 223.669 355.303 224.009 355.104 224.308C354.906 224.607 354.642 224.858 354.333 225.041L346.502 229.668C346.029 229.946 345.474 230.053 344.931 229.969C344.388 229.886 343.891 229.618 343.523 229.21L343.523 229.21Z" fill="#2F2E41"/>
<path d="M320.305 90.0232C320.305 90.0232 328.231 83.1536 331.93 86.8526C331.93 86.8526 349.104 97.6854 341.706 127.277C341.706 127.277 348.047 155.813 345.405 156.87C342.763 157.926 316.077 161.89 313.964 158.719C311.85 155.548 310.793 106.933 320.305 90.0232Z" fill="#A691F8"/>
<path d="M274.14 114.616L275.367 107.154C275.419 106.84 275.533 106.541 275.702 106.272C275.871 106.003 276.093 105.771 276.353 105.59C276.613 105.408 276.908 105.28 277.218 105.214C277.529 105.148 277.849 105.145 278.161 105.204L301.736 109.723L326.939 101.659C327.872 101.36 328.857 101.256 329.832 101.352C330.807 101.449 331.752 101.744 332.609 102.22C333.466 102.696 334.216 103.342 334.813 104.119C335.411 104.896 335.843 105.787 336.082 106.737L336.083 106.736C336.548 108.582 336.262 110.536 335.287 112.17C334.311 113.804 332.727 114.984 330.882 115.45L302.171 122.697L276.009 117.332C275.842 117.298 275.679 117.246 275.523 117.177C275.041 116.965 274.643 116.598 274.392 116.134C274.142 115.67 274.053 115.136 274.14 114.616Z" fill="#6C63FF"/>
<path d="M328.2 79.5553C329.386 76.8104 330.39 73.1547 328.115 71.214C326.795 70.0883 324.895 70.086 323.166 69.9459C318.295 69.5513 313.282 67.3103 310.901 63.0427C308.52 58.7752 309.85 52.4295 314.341 50.5042C317.368 49.2063 320.839 50.0905 324.008 50.9891L333.523 53.6872C336.35 54.4889 339.319 55.373 341.354 57.4927C344.6 60.8732 344.357 66.5878 341.779 70.5016C339.201 74.4153 335.318 78.4971 330.874 79.9831L328.2 79.5553Z" fill="#2F2E41"/>
<path d="M399.471 250.137H268.421C268.281 250.137 268.146 250.082 268.047 249.983C267.948 249.883 267.893 249.749 267.893 249.609C267.893 249.469 267.948 249.334 268.047 249.235C268.146 249.136 268.281 249.08 268.421 249.08H399.471C399.612 249.08 399.746 249.136 399.845 249.235C399.944 249.334 400 249.469 400 249.609C400 249.749 399.944 249.883 399.845 249.983C399.746 250.082 399.612 250.137 399.471 250.137Z" fill="#3F3D56"/>
<path d="M261.044 6.10352e-05H3.699C2.7183 0.0011492 1.77807 0.391211 1.08461 1.08467C0.39115 1.77814 0.00108817 2.71836 0 3.69907V193.934C0.00108817 194.914 0.39115 195.855 1.08461 196.548C1.77807 197.241 2.7183 197.632 3.699 197.633H261.044C262.025 197.632 262.965 197.241 263.658 196.548C264.352 195.855 264.742 194.914 264.743 193.934V3.69907C264.742 2.71836 264.352 1.77814 263.658 1.08467C262.965 0.391211 262.025 0.0011492 261.044 6.10352e-05ZM263.686 193.934C263.686 194.634 263.407 195.306 262.912 195.802C262.417 196.297 261.745 196.575 261.044 196.576H3.699C2.99835 196.575 2.32647 196.297 1.83103 195.802C1.33559 195.306 1.05714 194.634 1.05686 193.934V3.69907C1.05714 2.99841 1.33559 2.32653 1.83103 1.83109C2.32647 1.33565 2.99835 1.0572 3.699 1.05692H261.044C261.745 1.0572 262.417 1.33565 262.912 1.83109C263.407 2.32653 263.686 2.99841 263.686 3.69907V193.934Z" fill="#3F3D56"/>
<path d="M264.215 14.8171H0.52832V15.874H264.215V14.8171Z" fill="#3F3D56"/>
<path d="M9.51164 11.097C11.2627 11.097 12.6822 9.6775 12.6822 7.92644C12.6822 6.17537 11.2627 4.75586 9.51164 4.75586C7.76058 4.75586 6.34106 6.17537 6.34106 7.92644C6.34106 9.6775 7.76058 11.097 9.51164 11.097Z" fill="#3F3D56"/>
<path d="M18.6271 11.097C20.3782 11.097 21.7977 9.6775 21.7977 7.92644C21.7977 6.17537 20.3782 4.75586 18.6271 4.75586C16.8761 4.75586 15.4565 6.17537 15.4565 7.92644C15.4565 9.6775 16.8761 11.097 18.6271 11.097Z" fill="#3F3D56"/>
<path d="M27.7426 11.097C29.4937 11.097 30.9132 9.6775 30.9132 7.92644C30.9132 6.17537 29.4937 4.75586 27.7426 4.75586C25.9915 4.75586 24.572 6.17537 24.572 7.92644C24.572 9.6775 25.9915 11.097 27.7426 11.097Z" fill="#3F3D56"/>
<path d="M159.492 164.503C159.352 164.503 159.218 164.447 159.118 164.348C159.019 164.249 158.964 164.114 158.964 163.974V142.309C158.964 142.168 159.019 142.034 159.118 141.935C159.218 141.836 159.352 141.78 159.492 141.78C159.632 141.78 159.767 141.836 159.866 141.935C159.965 142.034 160.02 142.168 160.02 142.309V163.974C160.02 164.114 159.965 164.249 159.866 164.348C159.767 164.447 159.632 164.503 159.492 164.503Z" fill="#3F3D56"/>
<path d="M158.768 133.854C158.674 133.854 158.583 133.829 158.502 133.782L128.479 116.289C128.358 116.218 128.271 116.102 128.235 115.967C128.199 115.832 128.219 115.688 128.289 115.567C128.36 115.446 128.475 115.357 128.611 115.322C128.746 115.286 128.89 115.305 129.011 115.375L159.034 132.869C159.134 132.927 159.213 133.017 159.257 133.124C159.301 133.232 159.309 133.351 159.278 133.463C159.248 133.575 159.181 133.674 159.089 133.745C158.997 133.816 158.884 133.854 158.768 133.854Z" fill="#3F3D56"/>
<path d="M98.7233 133.854C98.6071 133.854 98.4941 133.816 98.4018 133.745C98.3095 133.674 98.243 133.575 98.2127 133.463C98.1823 133.351 98.1898 133.232 98.2339 133.124C98.278 133.017 98.3564 132.927 98.4568 132.869L128.479 115.375C128.601 115.306 128.744 115.287 128.879 115.322C129.015 115.358 129.13 115.446 129.2 115.567C129.271 115.688 129.29 115.832 129.255 115.967C129.219 116.102 129.132 116.218 129.011 116.289L98.9888 133.782C98.9082 133.829 98.8166 133.854 98.7233 133.854Z" fill="#3F3D56"/>
<path d="M189.945 160.275C189.852 160.275 189.76 160.25 189.68 160.203L159.657 142.71C159.536 142.64 159.448 142.524 159.412 142.388C159.377 142.253 159.396 142.109 159.467 141.988C159.537 141.867 159.653 141.779 159.788 141.743C159.924 141.707 160.068 141.727 160.189 141.797L190.212 159.29C190.312 159.349 190.39 159.438 190.434 159.546C190.479 159.653 190.486 159.772 190.456 159.885C190.425 159.997 190.359 160.096 190.267 160.166C190.174 160.237 190.061 160.275 189.945 160.275V160.275Z" fill="#3F3D56"/>
<path d="M129.901 160.275C129.784 160.275 129.671 160.237 129.579 160.166C129.487 160.096 129.42 159.997 129.39 159.885C129.36 159.773 129.367 159.653 129.411 159.546C129.455 159.438 129.534 159.349 129.634 159.29L159.657 141.797C159.778 141.727 159.922 141.708 160.057 141.744C160.192 141.78 160.307 141.868 160.377 141.989C160.448 142.109 160.467 142.253 160.432 142.388C160.397 142.524 160.309 142.639 160.189 142.71L130.166 160.203C130.085 160.25 129.994 160.275 129.901 160.275Z" fill="#3F3D56"/>
<path d="M128.843 106.904C128.703 106.904 128.569 106.848 128.47 106.749C128.371 106.651 128.315 106.517 128.315 106.377L128.266 87.1486C128.266 87.0792 128.279 87.0104 128.306 86.9463C128.332 86.8821 128.371 86.8237 128.42 86.7745C128.469 86.7253 128.527 86.6863 128.591 86.6596C128.655 86.6329 128.724 86.619 128.793 86.6189H128.794C128.934 86.6188 129.068 86.6743 129.168 86.7732C129.267 86.872 129.322 87.0061 129.323 87.146L129.372 106.374C129.372 106.443 129.358 106.512 129.332 106.576C129.306 106.641 129.267 106.699 129.218 106.748C129.169 106.797 129.111 106.836 129.047 106.863C128.983 106.89 128.914 106.904 128.844 106.904L128.843 106.904Z" fill="#3F3D56"/>
<path d="M135.678 116.9H121.911C121.28 116.899 120.676 116.648 120.23 116.202C119.784 115.756 119.534 115.152 119.533 114.522V107.451C119.534 106.82 119.784 106.216 120.23 105.77C120.676 105.324 121.28 105.073 121.911 105.073H135.678C136.308 105.073 136.912 105.324 137.358 105.77C137.804 106.216 138.055 106.82 138.055 107.451V114.522C138.055 115.152 137.804 115.756 137.358 116.202C136.912 116.648 136.308 116.899 135.678 116.9Z" fill="#CCCCCC"/>
<path d="M112.892 80.9558H83.5997C83.4596 80.9558 83.3252 80.9001 83.2261 80.801C83.127 80.7019 83.0713 80.5675 83.0713 80.4273C83.0713 80.2872 83.127 80.1528 83.2261 80.0537C83.3252 79.9546 83.4596 79.8989 83.5997 79.8989H112.892C113.033 79.8989 113.167 79.9546 113.266 80.0537C113.365 80.1528 113.421 80.2872 113.421 80.4273C113.421 80.5675 113.365 80.7019 113.266 80.801C113.167 80.9001 113.033 80.9558 112.892 80.9558Z" fill="#3F3D56"/>
<path d="M128.794 73.4081C128.654 73.4081 128.52 73.3524 128.421 73.2533C128.322 73.1542 128.266 73.0198 128.266 72.8797V54.5893C128.266 54.4491 128.322 54.3147 128.421 54.2156C128.52 54.1165 128.654 54.0608 128.794 54.0608C128.934 54.0608 129.069 54.1165 129.168 54.2156C129.267 54.3147 129.323 54.4491 129.323 54.5893V72.8797C129.323 73.0198 129.267 73.1542 129.168 73.2533C129.069 73.3524 128.934 73.4081 128.794 73.4081Z" fill="#3F3D56"/>
<path d="M72.203 80.9558C72.1084 80.9558 72.0155 80.9303 71.9341 80.882L43.4967 64.0272C43.3765 63.9555 43.2896 63.8391 43.2551 63.7035C43.2206 63.5679 43.2413 63.4242 43.3126 63.3038C43.384 63.1834 43.5001 63.0963 43.6356 63.0614C43.7712 63.0266 43.915 63.0469 44.0355 63.1179L72.473 79.9727C72.5726 80.0318 72.6501 80.122 72.6935 80.2294C72.7369 80.3368 72.7438 80.4555 72.7131 80.5672C72.6824 80.6789 72.6159 80.7775 72.5237 80.8477C72.4315 80.9179 72.3189 80.9559 72.203 80.9558Z" fill="#3F3D56"/>
<path d="M43.7665 97.8106C43.6506 97.8106 43.5379 97.7727 43.4458 97.7025C43.3536 97.6323 43.2871 97.5337 43.2564 97.422C43.2257 97.3103 43.2326 97.1916 43.276 97.0842C43.3194 96.9768 43.3969 96.8866 43.4965 96.8275L71.934 79.9727C72.0545 79.9012 72.1986 79.8806 72.3344 79.9153C72.4702 79.9501 72.5866 80.0373 72.658 80.1579C72.7295 80.2785 72.7501 80.4225 72.7154 80.5583C72.6807 80.6941 72.5934 80.8105 72.4729 80.882L44.0354 97.7368C43.954 97.7851 43.8611 97.8106 43.7665 97.8106Z" fill="#3F3D56"/>
<path d="M81.486 89.4793H74.4148C73.7843 89.4786 73.1799 89.2278 72.7341 88.782C72.2883 88.3362 72.0376 87.7318 72.0369 87.1013V73.3348C72.0376 72.7044 72.2883 72.0999 72.7341 71.6542C73.1799 71.2084 73.7843 70.9576 74.4148 70.9569H81.486C82.1164 70.9576 82.7208 71.2084 83.1666 71.6542C83.6124 72.0999 83.8632 72.7044 83.8639 73.3348V87.1013C83.8632 87.7318 83.6124 88.3362 83.1666 88.782C82.7208 89.2278 82.1164 89.4786 81.486 89.4793Z" fill="#CCCCCC"/>
<path d="M135.678 56.0112H121.911C121.28 56.0105 120.676 55.7598 120.23 55.314C119.784 54.8682 119.534 54.2638 119.533 53.6333V46.562C119.534 45.9315 119.784 45.3271 120.23 44.8813C120.676 44.4355 121.28 44.1847 121.911 44.184H135.678C136.308 44.1847 136.912 44.4355 137.358 44.8813C137.804 45.3271 138.055 45.9315 138.055 46.562V53.6333C138.055 54.2638 137.804 54.8682 137.358 55.314C136.912 55.7598 136.308 56.0105 135.678 56.0112Z" fill="#CCCCCC"/>
<path d="M41.8539 73.098H34.7827C34.1523 73.0973 33.5478 72.8465 33.102 72.4007C32.6562 71.9549 32.4055 71.3505 32.4048 70.72V56.9535C32.4055 56.3231 32.6562 55.7186 33.102 55.2728C33.5478 54.8271 34.1523 54.5763 34.7827 54.5756H41.8539C42.4843 54.5763 43.0888 54.8271 43.5346 55.2728C43.9803 55.7186 44.2311 56.3231 44.2318 56.9535V70.72C44.2311 71.3505 43.9803 71.9549 43.5346 72.4007C43.0888 72.8465 42.4843 73.0973 41.8539 73.098Z" fill="#CCCCCC"/>
<path d="M41.8539 106.389H34.7827C34.1523 106.388 33.5478 106.138 33.102 105.692C32.6562 105.246 32.4055 104.642 32.4048 104.011V90.2446C32.4055 89.6141 32.6562 89.0097 33.102 88.5639C33.5478 88.1181 34.1523 87.8673 34.7827 87.8666H41.8539C42.4843 87.8673 43.0888 88.1181 43.5346 88.5639C43.9803 89.0097 44.2311 89.6141 44.2318 90.2446V104.011C44.2311 104.642 43.9803 105.246 43.5346 105.692C43.0888 106.138 42.4843 106.388 41.8539 106.389Z" fill="#CCCCCC"/>
<path d="M173.989 80.9558H144.696C144.556 80.9558 144.421 80.9001 144.322 80.801C144.223 80.7019 144.167 80.5675 144.167 80.4273C144.167 80.2872 144.223 80.1528 144.322 80.0537C144.421 79.9546 144.556 79.8989 144.696 79.8989H173.989C174.129 79.8989 174.263 79.9546 174.362 80.0537C174.461 80.1528 174.517 80.2872 174.517 80.4273C174.517 80.5675 174.461 80.7019 174.362 80.801C174.263 80.9001 174.129 80.9558 173.989 80.9558Z" fill="#3F3D56"/>
<path d="M185.386 80.9558C185.27 80.9559 185.157 80.9179 185.065 80.8477C184.973 80.7775 184.906 80.679 184.876 80.5672C184.845 80.4555 184.852 80.3368 184.895 80.2294C184.939 80.1219 185.016 80.0318 185.116 79.9727L213.553 63.1179C213.613 63.0825 213.679 63.0593 213.748 63.0494C213.816 63.0396 213.886 63.0434 213.954 63.0606C214.021 63.0778 214.084 63.1081 214.139 63.1497C214.195 63.1913 214.242 63.2435 214.277 63.3032C214.313 63.3629 214.336 63.429 214.346 63.4977C214.355 63.5664 214.352 63.6363 214.334 63.7036C214.317 63.7708 214.287 63.834 214.245 63.8895C214.204 63.945 214.152 63.9918 214.092 64.0272L185.655 80.882C185.573 80.9303 185.48 80.9558 185.386 80.9558Z" fill="#3F3D56"/>
<path d="M213.822 97.8105C213.727 97.8106 213.635 97.7851 213.553 97.7368L185.116 80.882C184.995 80.8105 184.908 80.6941 184.873 80.5584C184.838 80.4226 184.859 80.2785 184.93 80.158C185.002 80.0374 185.118 79.9501 185.254 79.9154C185.39 79.8806 185.534 79.9013 185.655 79.9727L214.092 96.8275C214.192 96.8865 214.269 96.9767 214.313 97.0842C214.356 97.1916 214.363 97.3103 214.332 97.422C214.301 97.5338 214.235 97.6323 214.143 97.7025C214.051 97.7727 213.938 97.8107 213.822 97.8106V97.8105Z" fill="#3F3D56"/>
<path d="M183.174 89.4793H176.103C175.472 89.4786 174.868 89.2278 174.422 88.782C173.976 88.3362 173.725 87.7318 173.725 87.1013V73.3348C173.725 72.7044 173.976 72.1 174.422 71.6542C174.868 71.2084 175.472 70.9576 176.103 70.9569H183.174C183.804 70.9576 184.409 71.2084 184.854 71.6542C185.3 72.1 185.551 72.7044 185.552 73.3348V87.1013C185.551 87.7318 185.3 88.3362 184.854 88.782C184.409 89.2278 183.804 89.4786 183.174 89.4793Z" fill="#CCCCCC"/>
<path d="M222.806 73.098H215.735C215.104 73.0973 214.5 72.8465 214.054 72.4007C213.608 71.9549 213.357 71.3505 213.357 70.72V56.9535C213.357 56.3231 213.608 55.7187 214.054 55.2729C214.5 54.8271 215.104 54.5763 215.735 54.5756H222.806C223.436 54.5763 224.041 54.8271 224.486 55.2729C224.932 55.7187 225.183 56.3231 225.184 56.9535V70.72C225.183 71.3505 224.932 71.9549 224.486 72.4007C224.041 72.8465 223.436 73.0973 222.806 73.098Z" fill="#CCCCCC"/>
<path d="M222.806 106.389H215.735C215.104 106.388 214.5 106.138 214.054 105.692C213.608 105.246 213.357 104.642 213.357 104.011V90.2446C213.357 89.6141 213.608 89.0097 214.054 88.5639C214.5 88.1181 215.104 87.8673 215.735 87.8666H222.806C223.436 87.8673 224.041 88.1181 224.486 88.5639C224.932 89.0097 225.183 89.6141 225.184 90.2446V104.011C225.183 104.642 224.932 105.246 224.486 105.692C224.041 106.138 223.436 106.388 222.806 106.389Z" fill="#CCCCCC"/>
<path d="M105.029 143.849H91.262C90.6315 143.849 90.0271 143.598 89.5813 143.152C89.1355 142.706 88.8847 142.102 88.884 141.472V134.4C88.8847 133.77 89.1355 133.166 89.5813 132.72C90.0271 132.274 90.6315 132.023 91.262 132.022H105.029C105.659 132.023 106.263 132.274 106.709 132.72C107.155 133.166 107.406 133.77 107.407 134.4V141.472C107.406 142.102 107.155 142.706 106.709 143.152C106.263 143.598 105.659 143.849 105.029 143.849Z" fill="#CCCCCC"/>
<path d="M166.229 143.849H152.462C151.832 143.849 151.227 143.598 150.781 143.152C150.336 142.706 150.085 142.102 150.084 141.472V134.4C150.085 133.77 150.336 133.166 150.781 132.72C151.227 132.274 151.832 132.023 152.462 132.022H166.229C166.859 132.023 167.464 132.274 167.909 132.72C168.355 133.166 168.606 133.77 168.607 134.4V141.472C168.606 142.102 168.355 142.706 167.909 143.152C167.464 143.598 166.859 143.849 166.229 143.849Z" fill="#CCCCCC"/>
<path d="M138.222 169.743H124.455C123.825 169.742 123.22 169.491 122.775 169.045C122.329 168.599 122.078 167.995 122.077 167.365V160.293C122.078 159.663 122.329 159.059 122.775 158.613C123.22 158.167 123.825 157.916 124.455 157.916H138.222C138.852 157.916 139.457 158.167 139.903 158.613C140.348 159.059 140.599 159.663 140.6 160.293V167.365C140.599 167.995 140.348 168.599 139.903 169.045C139.457 169.491 138.852 169.742 138.222 169.743Z" fill="#CCCCCC"/>
<path d="M196.877 169.743H183.111C182.48 169.742 181.876 169.491 181.43 169.045C180.984 168.599 180.734 167.995 180.733 167.365V160.293C180.734 159.663 180.984 159.059 181.43 158.613C181.876 158.167 182.48 157.916 183.111 157.916H196.877C197.508 157.916 198.112 158.167 198.558 158.613C199.004 159.059 199.255 159.663 199.255 160.293V167.365C199.255 167.995 199.004 168.599 198.558 169.045C198.112 169.491 197.508 169.742 196.877 169.743Z" fill="#CCCCCC"/>
<path d="M166.229 169.743H152.462C151.832 169.742 151.227 169.491 150.781 169.045C150.336 168.599 150.085 167.995 150.084 167.365V160.293C150.085 159.663 150.336 159.059 150.781 158.613C151.227 158.167 151.832 157.916 152.462 157.916H166.229C166.859 157.916 167.464 158.167 167.909 158.613C168.355 159.059 168.606 159.663 168.607 160.293V167.365C168.606 167.995 168.355 168.599 167.909 169.045C167.464 169.491 166.859 169.742 166.229 169.743Z" fill="#CCCCCC"/>
<path d="M145.529 89.6199H112.059C111.429 89.6192 110.824 89.3684 110.379 88.9226C109.933 88.4768 109.682 87.8724 109.681 87.242V73.6127C109.682 72.9823 109.933 72.3779 110.379 71.9321C110.824 71.4863 111.429 71.2355 112.059 71.2348H145.529C146.16 71.2355 146.764 71.4863 147.21 71.9321C147.656 72.3779 147.906 72.9823 147.907 73.6127V87.242C147.906 87.8724 147.656 88.4768 147.21 88.9226C146.764 89.3684 146.16 89.6192 145.529 89.6199Z" fill="#F2CEC3"/>
</g>
<defs>
<clipPath id="clip0_77_460">
<rect width="400" height="250.137" fill="white"/>
</clipPath>
</defs>
</svg>
